HIERARCHY
ROOT Hips
{
	OFFSET 0.000000 0.000000 0.000000
	CHANNELS 6 Xposition Yposition Zposition Zrotation Xrotation Yrotation
	JOINT RightUpLeg
	{
		OFFSET -9.711200 0.000000 0.000000
		CHANNELS 3 Zrotation Xrotation Yrotation
		JOINT RightLeg
		{
			OFFSET 0.000000 -42.071800 0.000000
			CHANNELS 3 Zrotation Xrotation Yrotation
			JOINT RightFoot
			{
				OFFSET 0.000000 -40.121000 0.000000
				CHANNELS 3 Zrotation Xrotation Yrotation
				JOINT RightToe
				{
					OFFSET 0.000000 -9.631400 3.100600
					CHANNELS 3 Zrotation Xrotation Yrotation
					JOINT RightToeEnd
					{
						OFFSET 0.000000 -4.048200 4.118000
						CHANNELS 3 Zrotation Xrotation Yrotation
						End Site
						{
						    OFFSET 0.000000 -3.505200 3.565600
						}
					}
				}
			}
		}
	}
	JOINT LeftUpLeg
	{
		OFFSET 9.711200 0.000000 0.000000
		CHANNELS 3 Zrotation Xrotation Yrotation
		JOINT LeftLeg
		{
			OFFSET 0.000000 -42.071800 0.000000
			CHANNELS 3 Zrotation Xrotation Yrotation
			JOINT LeftFoot
			{
				OFFSET 0.000000 -40.121000 0.000000
				CHANNELS 3 Zrotation Xrotation Yrotation
				JOINT LeftToe
				{
					OFFSET 0.000000 -9.631400 3.100600
					CHANNELS 3 Zrotation Xrotation Yrotation
					JOINT LeftToeEnd
					{
						OFFSET 0.000000 -4.048200 4.118000
						CHANNELS 3 Zrotation Xrotation Yrotation
						End Site
						{
						    OFFSET 0.000000 -3.505200 3.565600
						}
					}
				}
			}
		}
	}
	JOINT Spine
	{
		OFFSET 0.000000 14.595200 0.000000
		CHANNELS 3 Zrotation Xrotation Yrotation
		JOINT Spine1
		{
			OFFSET 0.000000 9.770300 0.000000
			CHANNELS 3 Zrotation Xrotation Yrotation
			JOINT Spine2
			{
				OFFSET 0.000000 14.330100 0.000000
				CHANNELS 3 Zrotation Xrotation Yrotation
				JOINT LeftShoulder
				{
					OFFSET 2.000000 14.330100 0.000000
					CHANNELS 3 Zrotation Xrotation Yrotation
					JOINT LeftArm
					{
						OFFSET 14.369100 0.000000 0.000000
						CHANNELS 3 Zrotation Xrotation Yrotation
						JOINT LeftForeArm
						{
							OFFSET 0.000000 -27.196400 0.000000
							CHANNELS 3 Zrotation Xrotation Yrotation
							JOINT LeftHand
							{
								OFFSET 0.000000 -24.849000 0.000000
								CHANNELS 3 Zrotation Xrotation Yrotation
								JOINT LeftFinger0
								{
									OFFSET 0.000000 -7.367300 0.000000
									CHANNELS 3 Zrotation Xrotation Yrotation
									End Site
									{
									    OFFSET 0.000000 -5.000000 0.000000
									}
								}
							}
						}
					}
				}
				JOINT RightShoulder
				{
					OFFSET -2.000000 14.330100 0.000000
					CHANNELS 3 Zrotation Xrotation Yrotation
					JOINT RightArm
					{
						OFFSET -14.369100 0.000000 0.000000
						CHANNELS 3 Zrotation Xrotation Yrotation
						JOINT RightForeArm
						{
							OFFSET 0.000000 -27.196400 0.000000
							CHANNELS 3 Zrotation Xrotation Yrotation
							JOINT RightHand
							{
								OFFSET 0.000000 -24.849000 0.000000
								CHANNELS 3 Zrotation Xrotation Yrotation
								JOINT RightFinger0
								{
									OFFSET 0.000000 -7.367300 0.000000
									CHANNELS 3 Zrotation Xrotation Yrotation
									End Site
									{
									    OFFSET 0.000000 -5.000000 0.000000
									}
								}
							}
						}
					}
				}
				JOINT Neck
				{
					OFFSET 0.000000 14.330100 0.000000
					CHANNELS 3 Zrotation Xrotation Yrotation
					JOINT Head
					{
						OFFSET 0.000000 8.944300 0.000000
						CHANNELS 3 Zrotation Xrotation Yrotation
						JOINT HeadTip
						{
							OFFSET 0.000000 10.000000 0.000000
							CHANNELS 3 Zrotation Xrotation Yrotation
							End Site
							{
							    OFFSET 0.000000 5.000000 0.000000
							}
						}
					}
				}
			}
		}
	}
}
MOTION
Frames:	10
Frame Time:	0.033332
-190.786100 90.024500 -9.621900 -1.380603 -3.460793 -3.166309 0.731427 -5.885993 -12.006742 -0.000000 16.418371 0.000000 -3.291597 -40.808581 -21.952797 0.000000 -1.913953 -0.000000 0.000000 0.000000 0.000000 2.240825 -6.158154 11.696887 0.000000 18.351059 -0.000000 -2.072018 -46.947716 -12.511899 -0.000000 -0.841199 0.000000 0.000000 0.000000 -0.000000 2.897577 4.199935 1.156555 0.000000 4.318704 0.000000 0.000000 0.000000 -0.000000 0.134767 0.000000 10.205614 72.737982 -10.695589 52.896948 -0.000000 -15.258892 -0.000000 9.892067 10.110712 -39.963112 -0.000000 -0.000000 -0.000000 -4.799552 -0.000000 -7.520933 -80.779908 -5.221368 -13.810040 -0.000032 -11.934551 -0.000003 -1.998518 14.748471 11.313999 -0.000000 0.000000 -0.000000 0.000000 0.000000 -0.000000 -1.420638 11.201408 2.939203 -0.000000 0.000000 0.000000 
-190.787900 90.033200 -9.748400 -1.362080 -3.387796 -3.253297 0.718529 -6.110644 -11.941996 -0.000000 16.519286 -0.000000 -3.315567 -40.724064 -21.953756 -0.000000 -1.781986 -0.000000 -0.000000 -0.000000 -0.000000 2.239700 -6.325626 11.751539 -0.000000 18.379295 -0.000000 -1.978611 -46.814563 -12.462025 -0.000000 -0.859951 0.000000 0.000000 -0.000000 0.000000 2.824420 4.335651 1.179317 -0.000000 4.390263 -0.000000 0.000000 0.000000 -0.000000 -0.247420 0.000000 10.327873 71.602116 -11.183062 52.553070 -0.000000 -15.797584 0.000000 10.458441 9.805457 -39.953588 0.000000 0.000000 -0.000000 -4.399963 0.000000 -7.324771 -79.823277 -5.613911 -13.595242 -0.000034 -12.589920 -0.000004 -2.045962 14.578844 11.570690 -0.000000 0.000000 -0.000000 0.000000 0.000000 -0.000000 -1.336137 11.463364 3.630694 -0.000000 0.000000 -0.000000 
-190.795400 90.043300 -9.890800 -1.360118 -3.300797 -3.304048 0.712963 -6.354912 -11.966855 -0.000000 16.624056 -0.000000 -3.258674 -40.631268 -21.878858 0.000000 -1.677573 -0.000000 0.000000 0.000000 -0.000000 2.256084 -6.528934 11.745671 0.000000 18.416062 -0.000000 -1.916774 -46.694792 -12.345286 -0.000000 -0.763683 0.000000 0.000000 0.000000 0.000000 2.756567 4.501297 1.101583 -0.000000 4.452229 -0.000000 -0.000000 0.000000 -0.000000 -0.728125 -0.000000 10.610047 70.354879 -11.647520 51.512794 -0.000000 -16.649898 -0.000000 9.972213 9.785193 -40.171733 0.000000 0.000000 0.000000 -3.936040 -0.000000 -7.096548 -78.691589 -6.074949 -13.077511 -0.000036 -13.312010 -0.000004 -2.120034 14.357012 11.650186 0.000000 0.000000 -0.000000 -0.000000 0.000000 -0.000000 -1.261544 11.676361 4.360105 0.000000 0.000000 0.000000 
-190.799000 90.053200 -10.028100 -1.395443 -3.209242 -3.408316 0.751661 -6.580386 -11.928413 0.000000 16.681559 -0.000000 -3.184570 -40.510045 -21.798606 -0.000000 -1.534827 -0.000000 -0.000000 0.000000 -0.000000 2.311725 -6.734703 11.805335 0.000000 18.486819 -0.000000 -1.791434 -46.613865 -12.260129 -0.000000 -0.783695 -0.000000 -0.000000 0.000000 0.000000 2.732839 4.649440 1.135801 -0.000000 4.540112 -0.000000 0.000000 0.000000 -0.000000 -1.350711 -0.000000 10.927980 68.950366 -12.190532 50.236833 -0.000000 -17.760536 0.000000 9.727227 9.725689 -40.583714 -0.000000 -0.000000 -0.000000 -3.507972 -0.000000 -6.881355 -77.273181 -6.595890 -12.377760 -0.000038 -13.861604 -0.000005 -2.327076 14.374103 11.889983 -0.000000 0.000000 -0.000000 0.000000 0.000000 -0.000000 -1.246730 11.900075 4.891245 -0.000000 -0.000000 -0.000000 
-190.803100 90.064700 -10.178700 -1.414974 -3.119291 -3.558191 0.784722 -6.802902 -11.854726 -0.000000 16.708895 0.000000 -3.127509 -40.369133 -21.705703 -0.000000 -1.416245 -0.000000 -0.000000 -0.000000 -0.000000 2.350927 -6.937437 11.840082 -0.000000 18.540166 -0.000000 -1.667220 -46.519831 -12.063216 -0.000000 -0.646166 -0.000000 -0.000000 0.000000 0.000000 2.672275 4.818544 1.277337 -0.000000 4.629122 -0.000000 -0.000000 -0.000000 0.000000 -1.901717 0.000000 11.228071 66.971710 -12.730256 49.001704 -0.000000 -19.259560 -0.000000 10.071444 9.365872 -40.807716 -0.000000 0.000000 -0.000000 -3.006407 0.000000 -6.626300 -75.618933 -6.962495 -11.620138 -0.000040 -14.656966 -0.000005 -2.198939 14.378911 12.350674 0.000000 0.000000 0.000000 -0.000000 -0.000000 0.000000 -1.199638 12.114633 5.255164 -0.000000 0.000000 0.000000 
-190.792000 90.077400 -10.335900 -1.411854 -3.047257 -3.698519 0.775998 -7.034585 -11.804054 0.000000 16.778642 0.000000 -3.044055 -40.261061 -21.615377 0.000000 -1.189103 0.000000 -0.000000 0.000000 0.000000 2.363288 -7.125681 11.931363 0.000000 18.592863 0.000000 -1.545680 -46.414627 -11.976153 0.000000 -0.587557 0.000000 -0.000000 -0.000000 0.000000 2.609002 5.037634 1.432182 0.000000 4.709675 -0.000000 0.000000 0.000000 -0.000000 -2.587031 0.000000 11.361658 65.093618 -12.967491 47.236708 -0.000000 -20.749151 -0.000000 9.407369 9.348443 -41.327082 -0.000000 0.000000 -0.000000 -2.539908 -0.000000 -6.398295 -73.762338 -7.367980 -10.648513 -0.000042 -15.399066 -0.000006 -2.109141 14.304327 12.753931 -0.000000 0.000000 -0.000000 0.000000 0.000000 -0.000000 -1.218474 12.341659 5.634798 0.000000 0.000000 -0.000000 
-190.805500 90.084000 -10.500600 -1.398045 -2.969755 -3.735184 0.766418 -7.294136 -11.800672 0.000000 16.900620 -0.000000 -3.017965 -40.114171 -21.548559 -0.000000 -1.159340 -0.000000 -0.000000 -0.000000 -0.000000 2.375456 -7.357802 11.926806 0.000000 18.669870 0.000000 -1.454293 -46.288476 -11.905653 -0.000000 -0.514654 -0.000000 0.000000 -0.000000 -0.000000 2.469731 5.253359 1.508385 0.000000 4.775809 0.000000 -0.000000 0.000000 -0.000000 -3.182383 -0.000000 11.490384 63.031193 -13.242373 45.476764 -0.000000 -22.057598 0.000000 9.563044 9.211963 -41.342303 0.000000 0.000000 -0.000000 -2.028447 -0.000000 -6.216290 -71.570658 -8.005027 -9.613501 -0.000043 -15.797591 -0.000006 -2.807971 14.129176 12.610790 0.000000 0.000000 0.000000 -0.000000 0.000000 -0.000000 -1.046537 12.608756 6.067540 0.000000 0.000000 0.000000 
-190.818600 90.091100 -10.657700 -1.395163 -2.894474 -3.760995 0.779587 -7.539336 -11.756515 0.000000 17.008826 -0.000000 -3.091470 -40.000275 -21.572685 -0.000000 -0.990837 0.000000 -0.000000 0.000000 0.000000 2.402695 -7.577873 11.941939 -0.000000 18.743564 -0.000000 -1.438281 -46.174611 -11.833642 -0.000000 -0.432492 -0.000000 0.000000 -0.000000 0.000000 2.365737 5.455418 1.646093 -0.000000 4.902687 -0.000000 -0.000000 -0.000000 -0.000000 -3.545918 0.000000 11.732700 60.159675 -13.829017 44.225956 0.000000 -23.335155 0.000000 10.618857 8.516861 -40.837989 -0.000000 0.000000 0.000000 -1.469756 0.000000 -5.924997 -69.227689 -8.162410 -8.606466 -0.000046 -16.882356 -0.000007 -3.091801 14.285642 13.513374 -0.000000 -0.000000 -0.000000 -0.000000 -0.000000 -0.000000 -0.972499 12.764259 6.425011 -0.000000 0.000000 -0.000000 
-190.837700 90.095500 -10.817100 -1.400838 -2.818362 -3.666509 0.788867 -7.765147 -11.833701 -0.000000 17.096339 -0.000000 -3.158227 -39.843721 -21.598158 0.000000 -0.990962 -0.000000 0.000000 0.000000 0.000000 2.434815 -7.840687 11.843407 -0.000000 18.861988 -0.000000 -1.418162 -46.050498 -11.826767 0.000000 -0.338914 0.000000 0.000000 -0.000000 0.000000 2.288259 5.698851 1.656211 -0.000000 4.962493 0.000000 0.000000 0.000000 -0.000000 -4.000749 0.000000 11.791190 57.459734 -13.966480 42.313028 -0.000000 -24.761942 -0.000000 9.885291 8.707423 -41.543182 0.000000 0.000000 -0.000000 -1.076852 0.000000 -5.801717 -66.449021 -8.596134 -7.220689 -0.000049 -17.829803 -0.000008 -3.447439 14.081176 13.828122 0.000000 0.000000 -0.000000 0.000000 0.000000 -0.000000 -0.882684 12.920895 6.789857 0.000000 0.000000 -0.000000 
-190.853200 90.108400 -10.957900 -1.401477 -2.711681 -3.574621 0.798863 -7.976930 -11.928189 -0.000000 17.123078 -0.000000 -3.181202 -39.786915 -21.647174 -0.000000 -0.686692 -0.000000 -0.000000 0.000000 -0.000000 2.458142 -8.089618 11.782669 -0.000000 18.916114 -0.000000 -1.406277 -45.900549 -11.828200 0.000000 -0.304249 -0.000000 -0.000000 0.000000 0.000000 2.216362 5.866238 1.720627 -0.000000 5.041109 -0.000000 -0.000000 0.000000 0.000000 -4.390820 -0.000000 11.863255 54.680729 -14.015939 39.550346 -0.000000 -26.157226 0.000000 10.002396 8.786398 -41.979398 0.000000 0.000000 0.000000 -0.594747 -0.000000 -5.580420 -63.654177 -8.779880 -6.050735 -0.000052 -18.923391 -0.000009 -3.426178 14.112389 14.582033 -0.000000 0.000000 -0.000000 -0.000000 0.000000 0.000000 -0.818421 13.153107 7.186751 0.000000 0.000000 -0.000000 
